# xmcd
#
# Track frame offsets:
#	150
#	14337
#	28957
#	41225
#	51844
#	66134
#	79556
#	95780
#	111946
#	123116
#	136211
#	146562
#	162746
#	176666
#	187571
#	201667
#
# Disc length: 2841 seconds
#
# Revision: 1
# Processed by: cddbd v1.5.1PL0 Copyright (c) Steve Scherf et al.
# Submitted via: EasyCDDAExtractor 5.0.7
#
DISCID=e80b1710
DTITLE=Lassiter - aufabwegen
DYEAR=2004
DGENRE=Alternative
TTITLE0=Wüstenjagd
TTITLE1=Müßiggang
TTITLE2=Engel weben deinen Traum
TTITLE3=Schuld hat an allem nur der Mond
TTITLE4=Dein falsches Spiel
TTITLE5=Fountains of blue
TTITLE6=All of my love
TTITLE7=Bilder des Widerstands
TTITLE8=Erscheinung
TTITLE9=So wie es war soll's nie mehr sein
TTITLE10=I've got a tender heart
TTITLE11=Heaven help me
TTITLE12=Auf der schiefen Bahn
TTITLE13=Nummer 13
TTITLE14=I walked with a Zombie
TTITLE15=Das Duell
EXTD=
EXTT0=
EXTT1=
EXTT2=
EXTT3=
EXTT4=
EXTT5=
EXTT6=
EXTT7=
EXTT8=
EXTT9=
EXTT10=
EXTT11=
EXTT12=
EXTT13=
EXTT14=
EXTT15=
PLAYORDER=
